<svg width="120" height="40" viewBox="0 0 120 40" fill="none" xmlns="http://www.w3.org/2000/svg">
<path d="M26.1025 15.5767C26.2143 14.0778 25.9114 12.6068 25.2055 11.2087C25.2012 11.1983 25.196 11.1879 25.1899 11.1775C25.1522 11.1034 25.1113 11.0306 25.0716 10.9571C25.0404 10.8999 25.0118 10.8427 24.9793 10.7862C24.9319 10.701 24.8799 10.6172 24.8285 10.5333C24.7999 10.4865 24.7733 10.4391 24.744 10.3923C24.6855 10.2987 24.6225 10.2064 24.5601 10.1141C24.5354 10.0777 24.5126 10.0406 24.4873 10.0042C24.4006 9.87425 24.3085 9.74728 24.211 9.62335C24.1259 9.5122 24.0414 9.37895 23.951 9.23855C23.6624 8.78355 23.301 8.21545 22.6452 8.04125C22.5236 8.00517 22.3958 7.99491 22.2699 8.01114C22.1441 8.02737 22.0231 8.06973 21.9146 8.1355C21.533 8.37145 21.4446 8.8037 21.366 9.1859C21.3601 9.2132 21.3543 9.24375 21.3471 9.2756C21.328 9.37265 21.3035 9.46857 21.2737 9.5629C21.0975 9.46723 20.9309 9.35468 20.7764 9.22685C20.6718 9.1443 20.5717 9.0624 20.493 8.99805C20.2729 8.8065 20.0387 8.6318 19.7923 8.47545C19.6042 8.35455 19.3848 8.29149 19.1612 8.2941C19.1475 8.2941 19.1339 8.2941 19.1209 8.2941C18.5911 8.34285 18.2252 8.7972 17.9151 9.3679C17.7741 9.6279 17.6447 9.9113 17.5167 10.1921C17.4042 10.4371 17.2391 10.7992 17.1481 10.9272C17.1258 10.9389 17.1012 10.9458 17.076 10.9474C17.0515 10.9399 17.0292 10.9265 17.011 10.9084C16.8401 10.7569 16.5813 10.2226 16.4617 9.97695C16.1225 9.2769 15.7377 8.48195 14.9668 8.36365C14.0184 8.2174 13.2937 9.00325 12.6547 9.6968C12.3505 10.0263 12.0047 10.4001 11.7896 10.4807C11.7285 10.5028 11.7122 10.495 11.7025 10.4898C11.4217 10.3513 11.1357 9.41535 11.0421 9.1079C10.9929 8.9381 10.8969 8.7856 10.765 8.66788C10.6331 8.55015 10.4708 8.47197 10.2965 8.4423C9.4645 8.29475 8.4804 9.1573 7.8915 9.9373L7.83755 10.0081C7.2597 10.7725 6.6617 11.5636 6.32045 12.5789C6.3029 12.6328 6.28536 12.6861 6.27106 12.7323V12.7362C6.27077 12.7375 6.27077 12.7388 6.27106 12.7401V12.7401C5.95554 13.7407 5.79529 14.7837 5.79591 15.8328C5.79533 16.2748 5.83076 16.7161 5.90185 17.1523C5.9272 17.3083 5.95646 17.4617 5.99091 17.6131C6.23011 18.6726 6.68575 19.619 7.32275 20.3717C7.60875 20.7104 7.79205 21.1381 7.98575 21.5918C8.24575 22.1989 8.5142 22.8268 9.05955 23.3351C10.2887 24.481 11.8195 24.9601 13.4146 25.3904C13.6564 25.4554 13.906 25.5483 14.1705 25.6458C14.7315 25.8532 15.3672 26.0885 16.0555 26.0885C18.2655 26.0885 19.9483 25.5685 21.0644 24.546C21.4258 24.2152 21.8132 23.8882 22.1882 23.571C23.6007 22.3815 25.0606 21.1511 25.7353 19.2284C25.9953 18.4978 26.0083 17.7536 26.0239 17.034L26.0304 16.7636C26.0206 16.7435 26.1162 15.6573 26.1025 15.5767Z" fill="#532F09"/>
<path d="M11.4489 6.15426C11.5744 6.23736 11.7107 6.30297 11.8539 6.34926C12.0906 6.42655 12.3381 6.46539 12.5871 6.46431V6.46431C12.7451 6.46524 12.9027 6.44845 13.057 6.41426L13.0791 6.40906L13.0993 6.40321C13.1692 6.38586 13.2371 6.36147 13.3021 6.33041C13.3336 6.31433 13.364 6.29609 13.3931 6.27581L13.4132 6.26151C13.4386 6.24331 13.4633 6.22446 13.4873 6.20366L13.501 6.19196C13.5602 6.13851 13.6143 6.07977 13.6628 6.01646L13.6836 5.98916C13.7014 5.96576 13.7183 5.94171 13.7343 5.91701L13.7577 5.88191C13.7764 5.85201 13.7946 5.82146 13.8123 5.79026C13.824 5.77011 13.8344 5.7493 13.8455 5.7285L13.8689 5.68106C13.8793 5.66026 13.8897 5.63946 13.8994 5.61606C13.915 5.58161 13.9293 5.54716 13.9436 5.51206L13.9553 5.48021C14.008 5.34481 14.0482 5.20492 14.0756 5.06225C14.1115 4.87455 14.117 4.6823 14.0918 4.49286C14.0918 4.48441 14.0886 4.47595 14.0873 4.46685C14.0549 4.23016 13.9528 4.00844 13.7941 3.82985C13.5543 3.56985 12.7073 2.73915 11.8493 3.03165C11.3105 3.2156 10.9829 3.75965 10.8743 4.64885C10.8665 4.71386 10.86 4.77886 10.8542 4.84386C10.8483 4.91107 10.8465 4.97858 10.849 5.046C10.8509 5.26568 10.9065 5.48156 11.0111 5.67475C11.1157 5.86795 11.266 6.03258 11.4489 6.15426Z" fill="#532F09"/>
<path d="M15.9371 6.53974C15.9371 6.54689 15.9332 6.55404 15.9326 6.56119C15.9319 6.56834 15.9326 6.58134 15.9326 6.59109C15.9261 6.65999 15.9222 6.73149 15.9215 6.80429C15.9215 6.82639 15.9215 6.84719 15.9215 6.86929C15.9215 6.96289 15.9267 7.05844 15.9358 7.15724C15.9655 7.40386 16.0694 7.63566 16.2336 7.82203C16.3978 8.00841 16.6147 8.1406 16.8556 8.20114C16.9507 8.22539 17.0486 8.23762 17.1468 8.23754C17.3141 8.23688 17.4794 8.20147 17.6323 8.13354C17.9158 7.99949 18.1558 7.78816 18.3246 7.52384L18.3603 7.46989C18.3902 7.42374 18.4208 7.37824 18.4494 7.33339L18.4832 7.27944C18.5111 7.23524 18.5391 7.19169 18.5644 7.14944C18.5729 7.13579 18.58 7.12279 18.5878 7.10979C18.6158 7.06299 18.6424 7.01684 18.6678 6.97264L18.6834 6.94339C18.71 6.89594 18.7354 6.84914 18.7588 6.80364C18.762 6.79649 18.7653 6.78999 18.7692 6.78284C18.7932 6.73539 18.816 6.68859 18.8342 6.64309L18.8413 6.62684C18.8628 6.58069 18.8823 6.53454 18.9005 6.49034L18.9057 6.47734C18.9232 6.43249 18.9395 6.38894 18.9538 6.34734C18.9556 6.34312 18.9571 6.33877 18.9583 6.33434C18.972 6.29209 18.985 6.25114 18.9954 6.21084L18.9993 6.19654C19.009 6.15689 19.0181 6.11854 19.0253 6.08084C19.0253 6.07564 19.0253 6.07045 19.0253 6.06525C19.0318 6.02885 19.037 5.99309 19.0402 5.95799V5.94109C19.0402 5.90665 19.0448 5.87609 19.0448 5.84099V5.82345C19.0447 5.79131 19.0429 5.7592 19.0396 5.72724C19.0396 5.72269 19.0396 5.71814 19.0396 5.71294C19.0358 5.68019 19.0304 5.64764 19.0233 5.61544C19.0233 5.61544 19.0233 5.61155 19.0233 5.61025C19.0066 5.53324 18.9799 5.45873 18.944 5.3886C18.7913 5.0935 18.489 4.91865 18.1107 4.90955C17.3476 4.8907 16.7685 5.09025 16.3869 5.49974C16.1281 5.78843 15.9702 6.15346 15.9371 6.53974V6.53974Z" fill="#532F09"/>
<path d="M19.9938 5.26057C19.9938 5.27097 19.9938 5.28137 19.9996 5.29177C20.0114 5.33711 20.0262 5.38162 20.0438 5.42502C20.0438 5.42892 20.0438 5.43347 20.0484 5.43802C20.0588 5.46337 20.0705 5.48937 20.0828 5.51602C20.1743 5.71288 20.2941 5.8953 20.4384 6.05747L20.4631 6.08542L20.5079 6.13352C20.7172 6.35387 20.9629 6.52352 21.2001 6.55472C21.2286 6.55856 21.2572 6.56052 21.2859 6.56057C21.3274 6.56016 21.3687 6.55603 21.4094 6.54822L21.427 6.54497C21.4649 6.53698 21.5021 6.52589 21.5381 6.51182L21.555 6.50532C21.5918 6.49018 21.6275 6.47236 21.6616 6.45202H21.6662C21.8956 6.31552 22.0653 6.08022 22.1647 5.91317C22.1732 5.89887 22.179 5.88457 22.1875 5.87027C22.2057 5.83712 22.2232 5.80527 22.2395 5.77082C22.2557 5.73637 22.2635 5.72012 22.2739 5.69542C22.2843 5.67072 22.3025 5.62652 22.3149 5.59207C22.3272 5.55762 22.3318 5.54137 22.3389 5.51667C22.3461 5.49197 22.3565 5.45167 22.3636 5.42047C22.3708 5.38927 22.3753 5.36522 22.3792 5.33792C22.3831 5.31062 22.3864 5.28267 22.389 5.25472C22.3916 5.22677 22.3929 5.19427 22.3929 5.16437C22.3929 5.13447 22.3929 5.11757 22.3929 5.09482C22.3929 5.07207 22.3877 5.02982 22.3831 4.99797C22.3799 4.97782 22.3753 4.95897 22.3714 4.93947C22.3636 4.90632 22.3552 4.87447 22.3448 4.84197C22.3383 4.82377 22.3311 4.80622 22.324 4.78867C22.3118 4.75793 22.2977 4.72797 22.2817 4.69897C22.2778 4.69117 22.2752 4.68272 22.2707 4.67492C22.2661 4.66712 22.2525 4.64762 22.2434 4.63397C22.2343 4.62032 22.2297 4.60862 22.2206 4.59627C21.789 3.99762 20.9077 4.18937 20.6184 4.25242C20.506 4.27671 20.3997 4.32336 20.3058 4.38957L20.2999 4.39282L20.2876 4.40322C20.2591 4.42278 20.2321 4.44451 20.207 4.46822C20.2018 4.47277 20.1972 4.47862 20.1926 4.48317C20.1679 4.50841 20.1447 4.53511 20.1231 4.56312V4.56637C20.054 4.66197 20.0073 4.77196 19.9866 4.88812C19.9866 4.89202 19.9866 4.89657 19.9866 4.90047C19.9805 4.93679 19.977 4.9735 19.9762 5.01032C19.9762 5.01812 19.9762 5.02527 19.9762 5.03307C19.9752 5.04996 19.9752 5.06688 19.9762 5.08377C19.9766 5.14312 19.9825 5.2023 19.9938 5.26057V5.26057Z" fill="#532F09"/>
<path d="M15.2937 4.32969C15.3337 4.3698 15.3772 4.40634 15.4237 4.43889C15.4432 4.45189 15.4633 4.46034 15.4828 4.47139C15.51 4.48874 15.5382 4.50437 15.5673 4.51819C15.593 4.52808 15.6192 4.53633 15.646 4.54289C15.6698 4.55196 15.6941 4.55976 15.7188 4.56629C15.77 4.57719 15.8223 4.58263 15.8748 4.58254C15.9117 4.58234 15.9487 4.57952 15.9853 4.57409L16.0145 4.56824C16.0414 4.56304 16.068 4.55654 16.0945 4.54874H16.1094C16.1198 4.54484 16.1289 4.54029 16.1393 4.53704L16.1842 4.51884C16.2043 4.51039 16.2238 4.49999 16.2427 4.49024C16.2492 4.48634 16.2557 4.48374 16.2622 4.48049L16.27 4.47529C16.3675 4.41645 16.4533 4.33996 16.5228 4.24974L16.53 4.23999C16.5519 4.21206 16.5723 4.18299 16.5911 4.15289L16.5976 4.14249C16.6177 4.11064 16.6359 4.07749 16.6528 4.04499L16.6684 4.01249C16.6788 3.99169 16.6886 3.97024 16.6977 3.94749C16.7068 3.92474 16.7113 3.91564 16.7172 3.89939C16.723 3.88314 16.7341 3.85454 16.7419 3.83439C16.7497 3.81424 16.7568 3.79084 16.7633 3.76939C16.7698 3.74794 16.777 3.72454 16.7828 3.70439C16.7828 3.69334 16.7887 3.68294 16.7913 3.67254C16.8088 3.60234 16.8205 3.54254 16.829 3.48924C16.829 3.47624 16.829 3.46389 16.8329 3.45089C16.8381 3.41579 16.8413 3.38134 16.8446 3.34689C16.8498 3.29229 16.853 3.23899 16.8537 3.18634V3.15709C16.8543 3.09959 16.8519 3.04209 16.8465 2.98484C16.8465 2.95797 16.8439 2.93197 16.8387 2.90684C16.8355 2.88669 16.8329 2.86589 16.8296 2.84639C16.8218 2.80219 16.8134 2.75929 16.803 2.71639C16.803 2.71054 16.7984 2.70534 16.7965 2.69949C16.7395 2.47427 16.6083 2.27483 16.424 2.13334C16.1296 1.91819 15.735 1.67834 15.295 1.75309C15.1636 1.77509 15.0382 1.82375 14.9264 1.89608C14.8146 1.96841 14.7188 2.06287 14.645 2.17364C14.1601 2.86459 14.8536 3.86364 15.23 4.26989C15.2547 4.28939 15.2748 4.31084 15.2937 4.32969Z" fill="#532F09"/>
<path d="M8.71769 8.02426C8.74977 8.03806 8.78279 8.04957 8.81649 8.05871C8.89148 8.07915 8.96887 8.08943 9.04659 8.08926C9.39369 8.08926 9.74079 7.89426 9.96114 7.66676C9.99493 7.63188 10.0268 7.59521 10.0567 7.55691C10.2582 7.29691 10.3232 6.98946 10.2335 6.70151C10.2257 6.67746 10.2179 6.65731 10.2101 6.63651C10.0339 6.19711 9.52824 5.96246 9.02514 6.09961C8.53959 6.22961 8.09825 6.72491 8.27764 7.49451C8.30355 7.61145 8.35699 7.72053 8.43353 7.81266C8.51006 7.9048 8.60748 7.97734 8.71769 8.02426V8.02426Z" fill="#532F09"/>
<path d="M25.4674 15.8315C25.4323 16.1389 25.4187 16.4457 25.4128 16.7467C25.3914 17.5377 25.4063 18.3034 25.1528 19.0262C24.3611 21.2882 22.339 22.5453 20.6451 24.0962C19.4926 25.1544 17.7201 25.4781 16.0476 25.4781C15.1779 25.4781 14.3674 25.0179 13.5646 24.8015C12.0248 24.3868 10.6032 23.9461 9.46961 22.8892C8.63176 22.1092 8.53036 20.8625 7.77961 19.9778C7.09841 19.1718 6.67461 18.152 6.49456 17.0528C6.4295 16.6485 6.39711 16.2397 6.39771 15.8302C6.39685 14.8404 6.54857 13.8565 6.84751 12.913C6.86246 12.861 6.87936 12.8096 6.89626 12.7576C7.05452 12.3033 7.26848 11.8704 7.53326 11.4687V11.4687C7.79326 11.0676 8.07926 10.6887 8.37241 10.3026C9.23756 9.15792 10.2808 8.70813 10.457 9.28598C10.7293 10.1732 11.1317 11.3718 11.9988 11.0507C12.8659 10.7296 13.8123 8.80042 14.8705 8.96422C15.9287 9.12802 16.1055 12.1902 17.4867 11.4342C17.9066 11.2048 18.4689 8.96422 19.1767 8.89922C19.6889 8.85177 20.9233 10.5028 21.5648 10.1505C22.1245 9.84302 21.8177 8.44878 22.4924 8.62818C23.0657 8.77898 23.3426 9.47317 23.7118 9.96782C23.7176 9.97562 23.7222 9.98278 23.7287 9.99058C24.0819 10.4527 24.3918 10.9464 24.6543 11.4654V11.4687C25.3173 12.77 25.6501 14.2396 25.4674 15.8315Z" fill="#B8835A"/>
<path d="M6.84751 13.8261C6.86246 13.7748 6.87936 13.7228 6.89626 13.6714C7.05438 13.2169 7.26835 12.7837 7.53326 12.3818V12.3818C7.79326 11.9801 8.07926 11.6018 8.37241 11.2157C9.23756 10.0704 10.2808 9.62065 10.457 10.1985C10.7293 11.0864 11.1317 12.2843 11.9988 11.9639C12.8659 11.6434 13.8123 9.7149 14.8705 9.8774C15.9287 10.0399 16.1055 13.104 17.4867 12.3474C17.9066 12.1173 18.4689 9.8774 19.1767 9.8124C19.6889 9.7656 20.9233 11.4166 21.5648 11.0636C22.1245 10.7568 21.8177 9.3626 22.4924 9.542C23.0657 9.69215 23.3426 10.387 23.7118 10.881C23.7176 10.8888 23.7222 10.8966 23.7287 10.9044C24.0826 11.3662 24.3931 11.8597 24.6562 12.3786V12.3818C25.1432 13.3298 25.4308 14.3676 25.5012 15.431C25.5896 13.9925 25.2581 12.6594 24.6562 11.4699V11.4666C24.3931 10.9475 24.0826 10.4538 23.7287 9.9918C23.7222 9.984 23.7176 9.97685 23.7118 9.96905C23.3426 9.47375 23.0657 8.7802 22.4924 8.6294C21.8177 8.45 22.1245 9.84425 21.5648 10.1517C20.9233 10.504 19.6889 8.8517 19.1767 8.90045C18.4708 8.96545 17.9086 11.2066 17.4867 11.4354C16.1068 12.1894 15.93 9.12795 14.8705 8.96545C13.811 8.80295 12.8652 10.7308 11.9988 11.0513C11.1323 11.3717 10.7293 10.1738 10.457 9.28655C10.2808 8.7087 9.23756 9.15655 8.37241 10.3031C8.07926 10.6892 7.78741 11.0682 7.53326 11.4692C7.26848 11.8709 7.05452 12.3039 6.89626 12.7582C6.87936 12.8102 6.86246 12.8615 6.84751 12.9135C6.54856 13.8571 6.39685 14.841 6.39771 15.8307C6.39771 15.9757 6.40291 16.1193 6.41071 16.2623C6.45066 15.4348 6.59748 14.616 6.84751 13.8261V13.8261Z" fill="#D9A56B"/>
<path d="M25.4674 14.4632C25.4323 14.7706 25.4187 15.0774 25.4128 15.3784C25.3914 16.1694 25.4063 16.9351 25.1528 17.6573C24.3611 19.9199 22.339 21.177 20.6451 22.7273C19.4926 23.7855 17.7201 24.1092 16.0476 24.1092C15.1779 24.1092 14.3674 23.6483 13.5646 23.4325C12.0248 23.0178 10.6032 22.5765 9.46962 21.5202C8.63177 20.7402 8.53037 19.4935 7.77962 18.6089C7.09842 17.8029 6.67462 16.7824 6.49457 15.6839C6.4638 15.4941 6.44062 15.3023 6.42502 15.1086C6.40682 15.3465 6.39772 15.5868 6.39772 15.8295C6.39694 16.2401 6.42933 16.65 6.49457 17.0554C6.67267 18.1532 7.09842 19.1731 7.77962 19.9804C8.52777 20.865 8.62917 22.1104 9.46962 22.8917C10.6039 23.9486 12.0254 24.3867 13.5646 24.804C14.3674 25.0205 15.1779 25.4807 16.0476 25.4807C17.7233 25.4807 19.4926 25.1557 20.6451 24.0988C22.339 22.5479 24.3611 21.2908 25.1528 19.0288C25.4083 18.306 25.3933 17.5403 25.4128 16.7492C25.4187 16.4483 25.4323 16.1415 25.4674 15.834C25.5263 15.3221 25.5318 14.8053 25.4837 14.2922C25.4785 14.3475 25.4739 14.4053 25.4674 14.4632Z" fill="#9C6541"/>
<path d="M11.0732 12.5477C11.0732 12.8318 10.7742 13.1418 10.5961 13.3349C10.4481 13.496 10.2549 13.6086 10.0418 13.658C9.82869 13.7075 9.60563 13.6914 9.40185 13.6118C9.19806 13.5323 9.02307 13.393 8.8998 13.2123C8.77654 13.0316 8.71075 12.8178 8.71106 12.5991C8.71106 12.2565 8.85471 11.7612 9.10106 11.5623C9.28696 11.4128 9.53851 11.5135 9.79526 11.5135C10.0813 11.5135 10.3848 11.472 10.5753 11.6533C10.793 11.8509 11.0732 12.2344 11.0732 12.5477Z" fill="#D9A56B"/>
<path d="M10.3283 12.2025C10.3283 12.3175 10.1626 12.443 10.0644 12.5216C9.9367 12.6129 9.78385 12.6624 9.62685 12.6633C9.46985 12.6642 9.31642 12.6165 9.1876 12.5268C9.13849 12.4924 9.09799 12.4471 9.06924 12.3944C9.04049 12.3418 9.02427 12.2832 9.02185 12.2233C9.02185 12.0842 9.10115 11.884 9.2383 11.8027C9.341 11.7423 9.4801 11.7832 9.62245 11.7832C9.7804 11.7832 9.94745 11.7663 10.056 11.8398C10.1723 11.9204 10.3283 12.0751 10.3283 12.2025Z" fill="#D9A56B"/>
<path d="M11.0732 12.4307C11.0732 12.6835 10.8067 12.9598 10.6481 13.132C10.5163 13.2752 10.3443 13.3752 10.1547 13.4191C9.9651 13.4629 9.76667 13.4485 9.58539 13.3777C9.40411 13.3069 9.24842 13.183 9.1387 13.0223C9.02899 12.8615 8.97035 12.6714 8.97046 12.4768C8.97046 12.172 9.10046 11.7306 9.31886 11.5532C9.48461 11.4232 9.70886 11.5096 9.93701 11.5096C10.1918 11.5096 10.4622 11.4732 10.6345 11.6338C10.8223 11.8106 11.0732 12.1518 11.0732 12.4307Z" fill="#532F09"/>
<path d="M10.4096 12.1231C10.4096 12.2258 10.2627 12.3376 10.1743 12.4072C10.062 12.4916 9.92476 12.5362 9.78429 12.5339C9.6445 12.5371 9.50751 12.4944 9.39429 12.4124C9.35028 12.3819 9.31398 12.3416 9.28825 12.2947C9.26253 12.2478 9.24809 12.1955 9.24609 12.142C9.24609 12.0185 9.31694 11.8397 9.44109 11.7676C9.53274 11.7136 9.65624 11.75 9.78299 11.75C9.92404 11.75 10.0735 11.7351 10.1691 11.8001C10.2646 11.8651 10.4096 12.01 10.4096 12.1231Z" fill="#8A5D3B"/>
<path d="M17.2475 15.7736C17.2485 16.0387 17.1489 16.2942 16.9687 16.4886C16.7737 16.6973 16.5007 16.9235 16.1945 16.9235C15.8884 16.9235 15.6245 16.7031 15.4327 16.5023C15.2452 16.3066 15.1406 16.046 15.1409 15.7749C15.1409 15.4428 15.2741 15.0755 15.514 14.8825C15.6947 14.7375 15.9449 14.7219 16.1945 14.7219C16.4721 14.7219 16.8692 14.7583 17.0577 14.9338C17.2638 15.1249 17.2475 15.4694 17.2475 15.7736Z" fill="#D9A56B"/>
<path d="M16.9622 15.4532C16.9622 15.5669 16.8848 15.6703 16.7587 15.7483C16.5952 15.8641 16.4 15.9268 16.1996 15.9277C15.9992 15.9286 15.8034 15.8678 15.6388 15.7535C15.5088 15.6755 15.4269 15.5695 15.4269 15.4532C15.4329 15.3725 15.4616 15.2951 15.5097 15.2301C15.5578 15.165 15.6232 15.1148 15.6986 15.0853C15.8286 15.0255 16.0125 15.0203 16.1945 15.0203C16.3967 15.0203 16.6866 15.0352 16.8237 15.1074C16.9739 15.186 16.9622 15.3277 16.9622 15.4532Z" fill="#D9A56B"/>
<path d="M17.2475 15.6396C17.2478 15.8704 17.161 16.0928 17.0044 16.2623C16.8361 16.445 16.5956 16.6419 16.3284 16.6419C16.0613 16.6419 15.8312 16.4469 15.6635 16.274C15.5 16.1033 15.4089 15.876 15.4093 15.6396C15.4093 15.3497 15.525 15.0293 15.7343 14.8596C15.8916 14.7329 16.11 14.7192 16.3278 14.7192C16.5702 14.7192 16.9167 14.7511 17.0811 14.9045C17.2618 15.0735 17.2475 15.3744 17.2475 15.6396Z" fill="#532F09"/>
<path d="M16.9973 15.3602C16.9973 15.4596 16.9323 15.5493 16.8198 15.6169C16.673 15.7131 16.5026 15.7673 16.3271 15.7736C16.155 15.7668 15.9876 15.7146 15.8422 15.6221C15.7278 15.5539 15.657 15.4616 15.657 15.3621C15.6622 15.2917 15.6873 15.2242 15.7292 15.1673C15.7712 15.1105 15.8284 15.0667 15.8942 15.041C16.0093 14.9884 16.1685 14.9825 16.3271 14.9825C16.5039 14.9825 16.7568 14.9962 16.8764 15.0592C17.009 15.1262 16.9973 15.2503 16.9973 15.3602Z" fill="#8A5D3B"/>
<path d="M21.9243 12.5607C21.7392 12.5896 21.55 12.5476 21.3946 12.443C21.2275 12.3312 21.0397 12.1622 21.0046 11.9484C20.9695 11.7345 21.0969 11.5252 21.2165 11.3692C21.3332 11.2169 21.504 11.1154 21.6936 11.0858C21.9263 11.0501 22.198 11.1034 22.3592 11.2503C22.4801 11.3608 22.5184 11.5343 22.5457 11.7092C22.5756 11.9042 22.5932 12.1856 22.4905 12.3364C22.3806 12.5015 22.1375 12.5275 21.9243 12.5607Z" fill="#D9A56B"/>
<path d="M21.8529 12.014C21.7171 12.0375 21.5777 12.0277 21.4466 11.9854C21.3225 11.9419 21.1866 11.873 21.1697 11.7748C21.1528 11.6767 21.262 11.574 21.3647 11.4953C21.4782 11.4128 21.6104 11.3596 21.7495 11.3406C21.9322 11.312 22.1395 11.3231 22.2585 11.3835C22.2946 11.4042 22.3247 11.4338 22.346 11.4696C22.3673 11.5054 22.379 11.546 22.38 11.5876C22.3943 11.676 22.3937 11.8067 22.3066 11.8814C22.2195 11.9562 22.0199 11.9854 21.8529 12.014Z" fill="#D9A56B"/>
<path d="M22.0023 12.3104C21.8462 12.3346 21.6868 12.2991 21.5557 12.211C21.4153 12.1167 21.2567 11.9744 21.2307 11.7937C21.2047 11.613 21.3087 11.4375 21.4095 11.3062C21.5077 11.1776 21.6519 11.0921 21.8118 11.0676C22.0068 11.0371 22.2363 11.0819 22.3721 11.2061C22.4742 11.299 22.5067 11.4453 22.5294 11.5922C22.5548 11.756 22.5697 11.9939 22.4833 12.1213C22.3884 12.261 22.1836 12.2831 22.0023 12.3104Z" fill="#532F09"/>
<path d="M21.9438 11.8501C21.8296 11.8697 21.7123 11.8614 21.6019 11.8261C21.4973 11.789 21.3809 11.7312 21.3686 11.6486C21.3562 11.5661 21.4466 11.479 21.5311 11.4133C21.6271 11.344 21.7387 11.2994 21.8561 11.2833C22.0095 11.2599 22.185 11.269 22.2844 11.3204C22.315 11.3376 22.3406 11.3624 22.3588 11.3925C22.3769 11.4226 22.3869 11.4569 22.3878 11.492C22.3988 11.5667 22.3988 11.6766 22.3228 11.7396C22.2467 11.8027 22.0849 11.828 21.9438 11.8501Z" fill="#8A5D3B"/>
<path d="M25.4122 15.9374C25.4122 16.1915 25.3979 16.5152 25.2386 16.6881C25.0605 16.8831 24.7238 16.9091 24.4411 16.9091C24.1583 16.9091 23.832 16.9033 23.6552 16.718C23.4882 16.5438 23.47 16.198 23.47 15.938C23.4699 15.7926 23.5025 15.6491 23.5653 15.518C23.6282 15.3869 23.7198 15.2716 23.8333 15.1808C23.9997 15.0469 24.2344 14.8369 24.4645 14.8369C24.7206 14.8369 24.9299 15.0657 25.1034 15.2269C25.2009 15.3178 25.2786 15.4278 25.3317 15.55C25.3849 15.6722 25.4122 15.8041 25.4122 15.9374V15.9374Z" fill="#D9A56B"/>
<path d="M24.8396 15.7989C24.8234 15.9328 24.7954 16.1031 24.7051 16.185C24.6043 16.276 24.4347 16.2708 24.2943 16.2539C24.1539 16.237 23.9914 16.2149 23.9153 16.1064C23.8393 15.9978 23.8562 15.8204 23.8724 15.6826C23.8809 15.6067 23.9058 15.5336 23.9453 15.4683C23.9848 15.403 24.038 15.347 24.1012 15.3043C24.1929 15.2438 24.3229 15.147 24.4373 15.1606C24.5673 15.1756 24.6544 15.3095 24.7304 15.405C24.7738 15.4602 24.8057 15.5234 24.8245 15.591C24.8432 15.6586 24.8484 15.7293 24.8396 15.7989Z" fill="#D9A56B"/>
<path d="M25.4122 15.8204C25.4122 16.0479 25.3992 16.3404 25.2568 16.4918C25.0976 16.6641 24.796 16.6901 24.5418 16.6901C24.2877 16.6901 23.9958 16.6849 23.8379 16.5191C23.689 16.3631 23.6721 16.0531 23.6721 15.8204C23.6719 15.6901 23.701 15.5615 23.7572 15.444C23.8135 15.3266 23.8955 15.2233 23.9971 15.1418C24.146 15.0222 24.3559 14.8344 24.562 14.8344C24.7908 14.8344 24.9786 15.0398 25.134 15.1841C25.2216 15.2653 25.2916 15.3637 25.3394 15.4732C25.3873 15.5827 25.4121 15.7009 25.4122 15.8204V15.8204Z" fill="#532F09"/>
<path d="M24.8058 15.6982C24.7915 15.8185 24.7668 15.9706 24.6856 16.044C24.6043 16.1175 24.4438 16.1207 24.3183 16.1058C24.1929 16.0908 24.0466 16.0707 23.9784 15.9758C23.9101 15.8809 23.9257 15.7197 23.94 15.5968C23.9477 15.5289 23.97 15.4634 24.0055 15.4049C24.0409 15.3464 24.0887 15.2964 24.1454 15.2582C24.2273 15.2036 24.3404 15.1171 24.4464 15.1282C24.5601 15.1418 24.6414 15.2582 24.7064 15.3466C24.7452 15.3958 24.774 15.4521 24.7911 15.5125C24.8082 15.5728 24.8132 15.6359 24.8058 15.6982V15.6982Z" fill="#8A5D3B"/>
<path d="M22.1895 22.0604C22.1895 22.2613 22.025 22.4472 21.8989 22.5843C21.8269 22.6624 21.7395 22.7247 21.6421 22.7672C21.5448 22.8097 21.4397 22.8315 21.3334 22.8313C21.115 22.8313 20.8323 22.8313 20.6925 22.6851C20.5528 22.5388 20.5625 22.2691 20.5625 22.063C20.5625 21.9479 20.5883 21.8343 20.6382 21.7305C20.688 21.6268 20.7606 21.5356 20.8505 21.4637C20.9805 21.3578 21.1488 21.1881 21.3308 21.1881C21.5336 21.1881 21.7176 21.3734 21.8547 21.5008C22.0081 21.6392 22.1895 21.8368 22.1895 22.0604Z" fill="#D9A56B"/>
<path d="M21.9522 21.8296C21.9522 21.9226 21.8358 22.009 21.7461 22.0721C21.6275 22.1497 21.4881 22.1896 21.3464 22.1865C21.1917 22.1865 20.9915 22.1865 20.8914 22.1215C20.7913 22.0565 20.801 21.9265 20.801 21.8335C20.801 21.7217 20.881 21.6216 21.0045 21.5566C21.0981 21.5072 21.2164 21.4266 21.3451 21.4266C21.4887 21.4266 21.6187 21.5124 21.7162 21.5716C21.8137 21.6307 21.9522 21.7269 21.9522 21.8296Z" fill="#D9A56B"/>
<path d="M22.1895 21.9383C22.1895 22.1118 22.0478 22.2717 21.9386 22.3933C21.8766 22.4606 21.8014 22.5143 21.7176 22.5511C21.6337 22.5878 21.5432 22.6066 21.4517 22.6065C21.2632 22.6065 21.0195 22.6065 20.8986 22.4804C20.7777 22.3543 20.7887 22.1216 20.7887 21.9441C20.7885 21.8448 20.8107 21.7468 20.8537 21.6573C20.8967 21.5678 20.9594 21.4892 21.037 21.4274C21.1508 21.3357 21.297 21.1895 21.4517 21.1895C21.6259 21.1895 21.7852 21.3487 21.9067 21.4592C22.0328 21.5769 22.1895 21.7472 22.1895 21.9383Z" fill="#532F09"/>
<path d="M21.9848 21.7412C21.9848 21.8212 21.8847 21.8953 21.8073 21.9499C21.7052 22.0171 21.585 22.0515 21.4628 22.0487C21.3289 22.0487 21.1567 22.0487 21.0728 21.9902C20.989 21.9317 20.9948 21.8244 20.9948 21.7425C20.9993 21.6904 21.0181 21.6405 21.0491 21.5983C21.08 21.5561 21.122 21.5233 21.1703 21.5033C21.2509 21.4611 21.353 21.3928 21.4641 21.3928C21.5876 21.3928 21.7001 21.4669 21.7839 21.5183C21.8678 21.5696 21.9848 21.6528 21.9848 21.7412Z" fill="#8A5D3B"/>
<path d="M12.4661 22.0136C12.4661 22.2983 12.1658 22.6096 11.9871 22.8033C11.8386 22.9645 11.6449 23.0771 11.4314 23.1265C11.2179 23.1758 10.9945 23.1596 10.7903 23.0799C10.5862 23.0002 10.4108 22.8607 10.2872 22.6797C10.1636 22.4988 10.0975 22.2847 10.0975 22.0656C10.0975 21.7217 10.2412 21.2251 10.4875 21.0256C10.6741 20.8761 10.9263 20.9762 11.1837 20.9762C11.471 20.9762 11.7752 20.9352 11.9695 21.1166C12.1873 21.3148 12.4661 21.699 12.4661 22.0136Z" fill="#D9A56B"/>
<path d="M11.7187 21.6704C11.7187 21.7861 11.553 21.9122 11.4542 21.9908C11.3262 22.0826 11.173 22.1323 11.0156 22.1332C10.8582 22.1342 10.7044 22.0862 10.5754 21.996C10.5259 21.9617 10.4851 21.9163 10.4561 21.8636C10.4272 21.8108 10.4108 21.752 10.4083 21.6918C10.4083 21.5521 10.4883 21.3512 10.6254 21.27C10.7288 21.2095 10.8685 21.2505 11.0109 21.2505C11.1695 21.2505 11.3359 21.2336 11.4457 21.307C11.5634 21.3844 11.7187 21.5404 11.7187 21.6704Z" fill="#D9A56B"/>
<path d="M12.4662 21.8939C12.4662 22.1468 12.1997 22.4224 12.0411 22.5946C11.9092 22.7377 11.7372 22.8377 11.5476 22.8815C11.3579 22.9252 11.1595 22.9108 10.9783 22.84C10.797 22.7692 10.6413 22.6454 10.5315 22.4848C10.4217 22.3241 10.3629 22.134 10.3628 21.9394C10.3628 21.6346 10.4928 21.1939 10.7112 21.0164C10.8769 20.8832 11.1012 20.9729 11.33 20.9729C11.5848 20.9729 11.8545 20.9358 12.0274 21.097C12.2166 21.2732 12.4662 21.6144 12.4662 21.8939Z" fill="#532F09"/>
<path d="M11.8025 21.5865C11.8025 21.6886 11.655 21.8004 11.5672 21.8706C11.4536 21.9518 11.3176 21.9959 11.178 21.9967C11.0383 21.9975 10.9018 21.955 10.7872 21.8751C10.7432 21.8447 10.7069 21.8044 10.6811 21.7575C10.6554 21.7105 10.641 21.6582 10.639 21.6047C10.639 21.4812 10.7099 21.3025 10.834 21.2303C10.9257 21.177 11.0492 21.2128 11.1759 21.2128C11.317 21.2128 11.4665 21.1978 11.562 21.2635C11.6576 21.3291 11.8025 21.4754 11.8025 21.5865Z" fill="#8A5D3B"/>
<path d="M11.341 20.0388C12.8268 20.0388 14.0313 18.7217 14.0313 17.0969C14.0313 15.4722 12.8268 14.155 11.341 14.155C9.85515 14.155 8.65063 15.4722 8.65063 17.0969C8.65063 18.7217 9.85515 20.0388 11.341 20.0388Z" fill="#D9A56B"/>
<path d="M11.341 19.5357C12.8268 19.5357 14.0313 18.2439 14.0313 16.6504C14.0313 15.0568 12.8268 13.765 11.341 13.765C9.85515 13.765 8.65063 15.0568 8.65063 16.6504C8.65063 18.2439 9.85515 19.5357 11.341 19.5357Z" fill="#9C6541"/>
<path d="M11.341 19.5357C12.8268 19.5357 14.0313 18.3312 14.0313 16.8454C14.0313 15.3595 12.8268 14.155 11.341 14.155C9.85515 14.155 8.65063 15.3595 8.65063 16.8454C8.65063 18.3312 9.85515 19.5357 11.341 19.5357Z" fill="white"/>
<path d="M11.341 18.4087C12.2043 18.4087 12.9042 17.7088 12.9042 16.8455C12.9042 15.9821 12.2043 15.2822 11.341 15.2822C10.4776 15.2822 9.77771 15.9821 9.77771 16.8455C9.77771 17.7088 10.4776 18.4087 11.341 18.4087Z" fill="#532F09"/>
<path d="M11.6529 17.0346C11.9247 17.0346 12.145 16.8143 12.145 16.5426C12.145 16.2708 11.9247 16.0505 11.6529 16.0505C11.3812 16.0505 11.1609 16.2708 11.1609 16.5426C11.1609 16.8143 11.3812 17.0346 11.6529 17.0346Z" fill="white"/>
<path d="M10.8957 17.4778C11.0181 17.4778 11.1174 17.3786 11.1174 17.2562C11.1174 17.1338 11.0181 17.0345 10.8957 17.0345C10.7733 17.0345 10.6741 17.1338 10.6741 17.2562C10.6741 17.3786 10.7733 17.4778 10.8957 17.4778Z" fill="white"/>
<path d="M20.5737 20.0388C22.0595 20.0388 23.264 18.7217 23.264 17.0969C23.264 15.4722 22.0595 14.155 20.5737 14.155C19.0878 14.155 17.8833 15.4722 17.8833 17.0969C17.8833 18.7217 19.0878 20.0388 20.5737 20.0388Z" fill="#D9A56B"/>
<path d="M20.5737 19.5357C22.0595 19.5357 23.264 18.2439 23.264 16.6504C23.264 15.0568 22.0595 13.765 20.5737 13.765C19.0878 13.765 17.8833 15.0568 17.8833 16.6504C17.8833 18.2439 19.0878 19.5357 20.5737 19.5357Z" fill="#9C6541"/>
<path d="M20.5737 19.5357C22.0595 19.5357 23.264 18.3312 23.264 16.8454C23.264 15.3595 22.0595 14.155 20.5737 14.155C19.0878 14.155 17.8833 15.3595 17.8833 16.8454C17.8833 18.3312 19.0878 19.5357 20.5737 19.5357Z" fill="white"/>
<path d="M20.5736 18.4087C21.437 18.4087 22.1369 17.7088 22.1369 16.8455C22.1369 15.9821 21.437 15.2822 20.5736 15.2822C19.7103 15.2822 19.0104 15.9821 19.0104 16.8455C19.0104 17.7088 19.7103 18.4087 20.5736 18.4087Z" fill="#532F09"/>
<path d="M20.885 17.0346C21.1567 17.0346 21.377 16.8143 21.377 16.5426C21.377 16.2708 21.1567 16.0505 20.885 16.0505C20.6132 16.0505 20.3929 16.2708 20.3929 16.5426C20.3929 16.8143 20.6132 17.0346 20.885 17.0346Z" fill="white"/>
<path d="M20.1284 17.4778C20.2508 17.4778 20.35 17.3786 20.35 17.2562C20.35 17.1338 20.2508 17.0345 20.1284 17.0345C20.006 17.0345 19.9067 17.1338 19.9067 17.2562C19.9067 17.3786 20.006 17.4778 20.1284 17.4778Z" fill="white"/>
<path d="M18.0555 20.6251C17.6428 21.6287 16.8582 22.3054 15.9573 22.3054C15.0564 22.3054 14.2732 21.6287 13.8591 20.6251H18.0555Z" fill="#D9A56B"/>
<path d="M18.0555 20.6251C17.8466 20.998 17.5421 21.3085 17.1733 21.5247C16.8045 21.7408 16.3848 21.8547 15.9573 21.8547C15.5299 21.8547 15.1101 21.7408 14.7414 21.5247C14.3726 21.3085 14.068 20.998 13.8591 20.6251H18.0555Z" fill="#532F09"/>
<path d="M13.9898 20.321H17.9255C17.96 20.321 17.9931 20.3347 18.0174 20.3591C18.0418 20.3835 18.0555 20.4166 18.0555 20.451V20.6252H13.8591V20.451C13.8591 20.4339 13.8625 20.417 13.8691 20.4011C13.8757 20.3853 13.8853 20.371 13.8974 20.3589C13.9096 20.3468 13.924 20.3373 13.9398 20.3308C13.9557 20.3243 13.9727 20.321 13.9898 20.321Z" fill="#9C6541"/>
<path d="M11.4587 4.90045C11.3703 5.96255 12.7496 5.9294 13.0297 5.789C13.3099 5.6486 13.7311 4.66645 13.3456 4.24525C12.9602 3.82405 11.642 2.7002 11.4587 4.90045Z" fill="#B8835A"/>
<path d="M16.5385 7.09995C16.5801 7.5322 17.271 7.99565 17.817 7.1851C18.363 6.37455 18.7524 5.53215 18.0978 5.51655C17.4433 5.50095 16.3981 5.64265 16.5385 7.09995Z" fill="#B8835A"/>
<path d="M18.0782 5.79284C18.2836 5.79804 18.3857 5.88449 18.413 6.02554C18.4858 5.72653 18.413 5.52374 18.0977 5.51659C17.4822 5.50164 16.5234 5.62644 16.526 6.84909C16.6599 5.88579 17.5134 5.77984 18.0782 5.79284Z" fill="#D9A56B"/>
<path d="M17.817 6.7289C17.271 7.53945 16.582 7.076 16.5384 6.64375C16.5384 6.6379 16.5384 6.63205 16.5384 6.6262C16.5222 6.78373 16.5222 6.94252 16.5384 7.10005C16.58 7.5323 17.271 7.99575 17.817 7.1852C18.2382 6.55925 18.5638 5.91705 18.3909 5.64795C18.2973 5.95475 18.075 6.34475 17.817 6.7289Z" fill="#9C6541"/>
<path d="M20.7452 4.84453C20.2252 4.95698 21.026 5.92027 21.2756 5.94952C21.5252 5.97877 22.5386 4.45453 20.7452 4.84453Z" fill="#B8835A"/>
<path d="M20.7459 5.03033C21.4609 4.87563 21.7267 5.02318 21.7774 5.25523C21.8333 4.93023 21.6357 4.64943 20.7452 4.84313C20.5801 4.87888 20.5502 5.00043 20.5905 5.15058C20.6035 5.11858 20.6247 5.09059 20.6519 5.06947C20.6792 5.04834 20.7116 5.03484 20.7459 5.03033V5.03033Z" fill="#D9A56B"/>
<path d="M21.2756 5.53611C21.13 5.51791 20.7998 5.18446 20.6503 4.88611C20.3487 5.10126 21.0449 5.92611 21.2756 5.95146C21.4401 5.97226 21.936 5.31446 21.741 4.97646C21.6377 5.26701 21.3842 5.55041 21.2756 5.53611Z" fill="#9C6541"/>
<path d="M15.724 3.89935C16.1341 4.3095 16.4721 2.9172 16.0665 2.6208C15.6609 2.3244 15.3515 2.2308 15.1468 2.51875C14.942 2.8067 15.3496 3.52495 15.724 3.89935Z" fill="#B8835A"/>
<path d="M8.87235 7.35741C8.9523 7.70191 9.77261 7.25731 9.65626 6.88291C9.53991 6.50851 8.6936 6.60341 8.87235 7.35741Z" fill="#B8835A"/>
<path d="M13.3456 4.64041C13.4159 4.72028 13.4631 4.81781 13.4821 4.92251C13.5231 4.66706 13.4977 4.41356 13.3456 4.24716C12.9595 3.82596 11.642 2.70341 11.4606 4.90236C11.4538 4.98928 11.4587 5.07671 11.4749 5.16236C11.6979 3.14541 12.9673 4.22506 13.3456 4.64041Z" fill="#D9A56B"/>
<path d="M15.1474 2.7788C15.3502 2.48955 15.6615 2.5838 16.0671 2.8802C16.1711 2.9556 16.2257 3.1038 16.2433 3.2741C16.2673 3.00435 16.2205 2.7333 16.0665 2.6241C15.6615 2.3277 15.3515 2.2341 15.1467 2.52205C15.0876 2.60655 15.0817 2.72745 15.1097 2.8659C15.1171 2.83489 15.1298 2.80541 15.1474 2.7788V2.7788Z" fill="#D9A56B"/>
<path d="M9.6523 7.00317C9.6523 7.00967 9.6523 7.01683 9.65555 7.02398C9.66716 6.97752 9.66604 6.9288 9.6523 6.88292C9.54245 6.53192 8.79495 6.59367 8.84695 7.22418C8.89375 6.70677 9.55025 6.67557 9.6523 7.00317Z" fill="#D9A56B"/>
<path d="M13.0323 5.33135C12.7794 5.4581 11.64 5.4945 11.4794 4.7249C11.4729 4.7808 11.4664 4.838 11.4612 4.8991C11.3728 5.9612 12.7521 5.92805 13.0323 5.78765C13.2656 5.6713 13.5932 4.9758 13.4782 4.50195C13.4047 4.87895 13.1941 5.24945 13.0323 5.33135Z" fill="#9C6541"/>
<path d="M16.2173 2.87038C16.188 3.32213 15.9573 3.79208 15.6973 3.53078C15.4374 3.26782 15.2378 2.95156 15.1123 2.60388C15.0187 2.92888 15.3846 3.55743 15.7272 3.89933C16.0697 4.24123 16.3473 3.35983 16.2173 2.87038Z" fill="#9C6541"/>
<path d="M9.64068 6.85693C9.52238 7.17023 8.93738 7.43543 8.87237 7.14683C8.86639 7.1187 8.86184 7.09028 8.85873 7.06168C8.84335 7.16018 8.84799 7.26077 8.87237 7.35743C8.95233 7.70193 9.77263 7.25733 9.65628 6.88293C9.65238 6.87383 9.64458 6.86603 9.64068 6.85693Z" fill="#9C6541"/>
<path d="M29.1764 24.3939H2.73828V38.2246H29.1764V24.3939Z" fill="#532F09"/>
<path d="M7.55212 25.0056V29.2079L6.69153 28.3473V25.8669L7.55212 25.0056Z" fill="#A0593D"/>
<path d="M7.55222 29.2078H3.34998L4.21123 28.3472H6.69162L7.55222 29.2078Z" fill="#582F1B"/>
<path d="M4.21122 25.8669V28.3473L3.34998 29.2079V25.0056L4.21122 25.8669Z" fill="#66331F"/>
<path d="M6.69085 25.8668H4.21045V28.3472H6.69085V25.8668Z" fill="#89462B"/>
<path d="M7.55222 25.0056L6.69162 25.8668H4.21123L3.34998 25.0056H7.55222Z" fill="#B16A4A"/>
<path d="M7.55212 29.2078V33.4107L6.69153 32.5494V30.069L7.55212 29.2078Z" fill="#A0593D"/>
<path d="M7.55222 33.4107H3.34998L4.21123 32.5494H6.69162L7.55222 33.4107Z" fill="#582F1B"/>
<path d="M4.21122 30.069V32.5494L3.34998 33.4107V29.2078L4.21122 30.069Z" fill="#66331F"/>
<path d="M6.69085 30.0691H4.21045V32.5495H6.69085V30.0691Z" fill="#89462B"/>
<path d="M7.55222 29.2078L6.69162 30.069H4.21123L3.34998 29.2078H7.55222Z" fill="#B16A4A"/>
<path d="M7.55212 33.4106V37.6129L6.69153 36.7523V34.2712L7.55212 33.4106Z" fill="#A0593D"/>
<path d="M7.55222 37.6129H3.34998L4.21123 36.7523H6.69162L7.55222 37.6129Z" fill="#582F1B"/>
<path d="M4.21122 34.2712V36.7523L3.34998 37.6129V33.4106L4.21122 34.2712Z" fill="#66331F"/>
<path d="M6.69085 34.2712H4.21045V36.7516H6.69085V34.2712Z" fill="#89462B"/>
<path d="M7.55222 33.4106L6.69162 34.2712H4.21123L3.34998 33.4106H7.55222Z" fill="#B16A4A"/>
<path d="M11.7551 25.0056V29.2079L10.8938 28.3473V25.8669L11.7551 25.0056Z" fill="#A0593D"/>
<path d="M11.755 29.2078H7.55212L8.41337 28.3472H10.8938L11.755 29.2078Z" fill="#582F1B"/>
<path d="M8.41337 25.8669V28.3473L7.55212 29.2079V25.0056L8.41337 25.8669Z" fill="#66331F"/>
<path d="M10.8939 25.8668H8.41345V28.3472H10.8939V25.8668Z" fill="#89462B"/>
<path d="M11.755 25.0056L10.8938 25.8668H8.41337L7.55212 25.0056H11.755Z" fill="#B16A4A"/>
<path d="M11.7551 29.2078V33.4107L10.8938 32.5494V30.069L11.7551 29.2078Z" fill="#A0593D"/>
<path d="M11.755 33.4107H7.55212L8.41337 32.5494H10.8938L11.755 33.4107Z" fill="#582F1B"/>
<path d="M8.41337 30.069V32.5494L7.55212 33.4107V29.2078L8.41337 30.069Z" fill="#66331F"/>
<path d="M10.8939 30.0691H8.41345V32.5495H10.8939V30.0691Z" fill="#89462B"/>
<path d="M11.755 29.2078L10.8938 30.069H8.41337L7.55212 29.2078H11.755Z" fill="#B16A4A"/>
<path d="M11.7551 33.4106V37.6129L10.8938 36.7523V34.2712L11.7551 33.4106Z" fill="#A0593D"/>
<path d="M11.755 37.6129H7.55212L8.41337 36.7523H10.8938L11.755 37.6129Z" fill="#582F1B"/>
<path d="M8.41337 34.2712V36.7523L7.55212 37.6129V33.4106L8.41337 34.2712Z" fill="#66331F"/>
<path d="M10.8939 34.2712H8.41345V36.7516H10.8939V34.2712Z" fill="#89462B"/>
<path d="M11.755 33.4106L10.8938 34.2712H8.41337L7.55212 33.4106H11.755Z" fill="#B16A4A"/>
<path d="M15.9573 25.0056V29.2079L15.0961 28.3473V25.8669L15.9573 25.0056Z" fill="#A0593D"/>
<path d="M15.9574 29.2078H11.7551L12.6157 28.3472H15.0961L15.9574 29.2078Z" fill="#582F1B"/>
<path d="M12.6157 25.8669V28.3473L11.7551 29.2079V25.0056L12.6157 25.8669Z" fill="#66331F"/>
<path d="M15.0961 25.8668H12.6157V28.3472H15.0961V25.8668Z" fill="#89462B"/>
<path d="M15.9574 25.0056L15.0961 25.8668H12.6157L11.7551 25.0056H15.9574Z" fill="#B16A4A"/>
<path d="M15.9573 29.2078V33.4107L15.0961 32.5494V30.069L15.9573 29.2078Z" fill="#A0593D"/>
<path d="M15.9574 33.4107H11.7551L12.6157 32.5494H15.0961L15.9574 33.4107Z" fill="#582F1B"/>
<path d="M12.6157 30.069V32.5494L11.7551 33.4107V29.2078L12.6157 30.069Z" fill="#66331F"/>
<path d="M15.0961 30.0691H12.6157V32.5495H15.0961V30.0691Z" fill="#89462B"/>
<path d="M15.9574 29.2078L15.0961 30.069H12.6157L11.7551 29.2078H15.9574Z" fill="#B16A4A"/>
<path d="M15.9573 33.4106V37.6129L15.0961 36.7523V34.2712L15.9573 33.4106Z" fill="#A0593D"/>
<path d="M15.9574 37.6129H11.7551L12.6157 36.7523H15.0961L15.9574 37.6129Z" fill="#582F1B"/>
<path d="M12.6157 34.2712V36.7523L11.7551 37.6129V33.4106L12.6157 34.2712Z" fill="#66331F"/>
<path d="M15.0961 34.2712H12.6157V36.7516H15.0961V34.2712Z" fill="#89462B"/>
<path d="M15.9574 33.4106L15.0961 34.2712H12.6157L11.7551 33.4106H15.9574Z" fill="#B16A4A"/>
<path d="M20.1595 25.0056V29.2079L19.299 28.3473V25.8669L20.1595 25.0056Z" fill="#A0593D"/>
<path d="M20.1595 29.2078H15.9573L16.8185 28.3472H19.2989L20.1595 29.2078Z" fill="#582F1B"/>
<path d="M16.8185 25.8669V28.3473L15.9573 29.2079V25.0056L16.8185 25.8669Z" fill="#66331F"/>
<path d="M19.299 25.8668H16.8186V28.3472H19.299V25.8668Z" fill="#89462B"/>
<path d="M20.1595 25.0056L19.2989 25.8668H16.8185L15.9573 25.0056H20.1595Z" fill="#B16A4A"/>
<path d="M20.1595 29.2078V33.4107L19.299 32.5494V30.069L20.1595 29.2078Z" fill="#A0593D"/>
<path d="M20.1595 33.4107H15.9573L16.8185 32.5494H19.2989L20.1595 33.4107Z" fill="#582F1B"/>
<path d="M16.8185 30.069V32.5494L15.9573 33.4107V29.2078L16.8185 30.069Z" fill="#66331F"/>
<path d="M19.299 30.0691H16.8186V32.5495H19.299V30.0691Z" fill="#89462B"/>
<path d="M20.1595 29.2078L19.2989 30.069H16.8185L15.9573 29.2078H20.1595Z" fill="#B16A4A"/>
<path d="M20.1595 33.4106V37.6129L19.299 36.7523V34.2712L20.1595 33.4106Z" fill="#A0593D"/>
<path d="M20.1595 37.6129H15.9573L16.8185 36.7523H19.2989L20.1595 37.6129Z" fill="#582F1B"/>
<path d="M16.8185 34.2712V36.7523L15.9573 37.6129V33.4106L16.8185 34.2712Z" fill="#66331F"/>
<path d="M19.299 34.2712H16.8186V36.7516H19.299V34.2712Z" fill="#89462B"/>
<path d="M20.1595 33.4106L19.2989 34.2712H16.8185L15.9573 33.4106H20.1595Z" fill="#B16A4A"/>
<path d="M24.3625 25.0056V29.2079L23.5012 28.3473V25.8669L24.3625 25.0056Z" fill="#A0593D"/>
<path d="M24.3624 29.2078H20.1595L21.0208 28.3472H23.5012L24.3624 29.2078Z" fill="#582F1B"/>
<path d="M21.0208 25.8669V28.3473L20.1595 29.2079V25.0056L21.0208 25.8669Z" fill="#66331F"/>
<path d="M23.5013 25.8668H21.0209V28.3472H23.5013V25.8668Z" fill="#89462B"/>
<path d="M24.3624 25.0056L23.5012 25.8668H21.0208L20.1595 25.0056H24.3624Z" fill="#B16A4A"/>
<path d="M24.3625 29.2078V33.4107L23.5012 32.5494V30.069L24.3625 29.2078Z" fill="#A0593D"/>
<path d="M24.3624 33.4107H20.1595L21.0208 32.5494H23.5012L24.3624 33.4107Z" fill="#582F1B"/>
<path d="M21.0208 30.069V32.5494L20.1595 33.4107V29.2078L21.0208 30.069Z" fill="#66331F"/>
<path d="M23.5013 30.0691H21.0209V32.5495H23.5013V30.0691Z" fill="#89462B"/>
<path d="M24.3624 29.2078L23.5012 30.069H21.0208L20.1595 29.2078H24.3624Z" fill="#B16A4A"/>
<path d="M24.3625 33.4106V37.6129L23.5012 36.7523V34.2712L24.3625 33.4106Z" fill="#A0593D"/>
<path d="M24.3624 37.6129H20.1595L21.0208 36.7523H23.5012L24.3624 37.6129Z" fill="#582F1B"/>
<path d="M21.0208 34.2712V36.7523L20.1595 37.6129V33.4106L21.0208 34.2712Z" fill="#66331F"/>
<path d="M23.5013 34.2712H21.0209V36.7516H23.5013V34.2712Z" fill="#89462B"/>
<path d="M24.3624 33.4106L23.5012 34.2712H21.0208L20.1595 33.4106H24.3624Z" fill="#B16A4A"/>
<path d="M28.5647 25.0056V29.2079L27.7041 28.3473V25.8669L28.5647 25.0056Z" fill="#A0593D"/>
<path d="M28.5647 29.2078H24.3624L25.223 28.3472H27.7041L28.5647 29.2078Z" fill="#582F1B"/>
<path d="M25.223 25.8669V28.3473L24.3624 29.2079V25.0056L25.223 25.8669Z" fill="#66331F"/>
<path d="M27.7034 25.8668H25.223V28.3472H27.7034V25.8668Z" fill="#89462B"/>
<path d="M28.5647 25.0056L27.7041 25.8668H25.223L24.3624 25.0056H28.5647Z" fill="#B16A4A"/>
<path d="M28.5647 29.2078V33.4107L27.7041 32.5494V30.069L28.5647 29.2078Z" fill="#A0593D"/>
<path d="M28.5647 33.4107H24.3624L25.223 32.5494H27.7041L28.5647 33.4107Z" fill="#582F1B"/>
<path d="M25.223 30.069V32.5494L24.3624 33.4107V29.2078L25.223 30.069Z" fill="#66331F"/>
<path d="M27.7034 30.0691H25.223V32.5495H27.7034V30.0691Z" fill="#89462B"/>
<path d="M28.5647 29.2078L27.7041 30.069H25.223L24.3624 29.2078H28.5647Z" fill="#B16A4A"/>
<path d="M28.5647 33.4106V37.6129L27.7041 36.7523V34.2712L28.5647 33.4106Z" fill="#A0593D"/>
<path d="M28.5647 37.6129H24.3624L25.223 36.7523H27.7041L28.5647 37.6129Z" fill="#582F1B"/>
<path d="M25.223 34.2712V36.7523L24.3624 37.6129V33.4106L25.223 34.2712Z" fill="#66331F"/>
<path d="M27.7034 34.2712H25.223V36.7516H27.7034V34.2712Z" fill="#89462B"/>
<path d="M28.5647 33.4106L27.7041 34.2712H25.223L24.3624 33.4106H28.5647Z" fill="#B16A4A"/>
<path d="M31.4533 31.4854C31.4611 31.4549 31.4702 31.4204 31.478 31.3912C31.5716 31.0389 31.9109 29.8715 31.5345 28.8861C31.3395 28.3706 31.4169 28.0339 31.5053 27.6751C31.6073 27.2598 31.762 26.6319 31.1289 26.0963C30.618 25.6647 29.9693 25.6991 29.4864 26.1743C29.3285 26.3261 29.1952 26.5015 29.0912 26.6943C28.9209 27.0024 28.7662 27.4424 28.7662 27.8513C28.1006 27.6381 27.4155 27.6062 26.9332 28.032C26.3657 28.5325 26.2117 29.2553 26.5185 29.9716C26.554 30.0796 26.5995 30.184 26.6543 30.2836C26.6348 30.2979 26.616 30.3128 26.5971 30.3284C26.4657 30.4348 26.3614 30.5709 26.2929 30.7256C26.0381 31.2826 26.1161 31.8098 26.5308 32.3337L26.5256 32.3389C26.0979 32.7334 26.0024 33.4666 26.2877 34.1686C26.4426 34.5473 26.6881 34.8821 27.0027 35.1436C27.0151 35.154 27.0281 35.1638 27.0411 35.1729C27.1801 35.2852 27.3302 35.3832 27.4889 35.4654C27.9857 35.7242 28.5376 35.8593 29.0977 35.8593C29.7971 35.8593 30.423 35.6467 30.8124 35.3302C31.2433 34.9792 31.4201 34.4852 31.2849 34.0087C31.2537 33.8982 31.2531 33.8963 31.3915 33.7045C31.7432 33.2222 32.0344 32.6554 31.4533 31.4854Z" fill="#532F09"/>
<path d="M30.7162 34.1569C30.9502 34.983 29.2362 35.6571 27.7912 34.905C27.6579 34.8361 27.5327 34.7524 27.4181 34.6554H27.4149C27.1766 34.4592 26.9906 34.2071 26.8734 33.9216C26.566 33.1663 26.8734 32.4168 27.5462 32.7288C27.7546 32.8237 27.974 32.892 28.1994 32.9323C27.6593 32.5559 27.2953 32.2537 27.0723 31.9891C26.7421 31.5991 26.7161 31.293 26.8676 30.9615C27.149 30.3407 28.1734 30.9426 28.2586 30.9966C26.7941 29.9748 26.9365 29.3436 27.3369 28.6325C27.6918 27.9981 29.7913 28.9107 30.3613 29.458C30.4792 29.5688 30.5867 29.6903 30.6824 29.8207C31.2622 30.6144 30.8495 31.1708 30.8475 31.5107C30.8476 31.5365 30.8506 31.5623 30.8566 31.5874C30.8603 31.6066 30.8671 31.625 30.8768 31.642C31.7666 33.3392 30.438 33.1754 30.7162 34.1569Z" fill="#B8835A"/>
<path d="M30.9651 29.1084C30.9651 29.1084 30.9651 29.1038 30.9593 29.1025C30.8871 29.0317 30.2911 28.4603 29.5618 28.1925C29.2908 28.0944 29.3753 27.4567 29.6443 26.9705C29.8933 26.5155 30.3015 26.1905 30.7344 26.5591C31.4273 27.1493 30.4256 27.7349 30.9651 29.1084Z" fill="#B8835A"/>
<path d="M30.9651 29.1083C30.9651 29.1083 30.9651 29.1037 30.9593 29.1024C30.6044 28.7046 30.5387 28.1554 30.5556 27.4495C30.5706 26.8405 29.8913 26.7254 29.6456 26.9737C29.8946 26.5187 30.3028 26.1937 30.7357 26.5623C31.4273 27.1492 30.4256 27.7348 30.9651 29.1083Z" fill="#D9A56B"/>
<path d="M28.2007 32.9343C28.2007 32.9343 26.6823 33.0461 26.8701 33.9223C26.5627 33.167 26.8701 32.4175 27.5429 32.7295C27.7514 32.8241 27.9708 32.8924 28.1961 32.933L28.2007 32.9343Z" fill="#D9A56B"/>
<path d="M28.265 31.0012C28.265 31.0012 26.4788 30.6762 27.0723 31.9905C26.7421 31.6005 26.7161 31.295 26.8675 30.9635C27.149 30.3421 28.1734 30.9446 28.2585 30.9986C26.7941 29.9768 26.7265 29.0317 27.3381 28.4922C28.0037 27.9072 29.7912 28.9127 30.3613 29.46C30.4792 29.5709 30.5866 29.6923 30.6824 29.8227C30.4913 29.566 28.4763 28.576 28.0018 28.9218C27.4532 29.3209 27.3537 30.1893 28.265 31.0012Z" fill="#D9A56B"/>
<path d="M30.7162 34.1569C30.9502 34.9831 29.2361 35.6571 27.7912 34.9051C27.6578 34.8362 27.5327 34.7525 27.4181 34.6555C28.6992 35.3887 29.9206 34.4468 29.8835 33.9216C29.7945 32.6567 31.4084 32.9986 30.8585 31.5901C30.8622 31.6093 30.869 31.6277 30.8787 31.6447C31.7666 33.3392 30.438 33.1754 30.7162 34.1569Z" fill="#9C6541"/>
<path d="M0.461306 31.4854C0.453506 31.4549 0.444406 31.4204 0.436606 31.3912C0.343006 31.0389 0.00370651 29.8715 0.380056 28.8861C0.575056 28.3706 0.497705 28.0339 0.409305 27.6751C0.307255 27.2598 0.152556 26.6319 0.785656 26.0963C1.29656 25.6647 1.94525 25.6991 2.4282 26.1743C2.58611 26.3261 2.71944 26.5015 2.82341 26.6943C2.99371 27.0024 3.14841 27.4424 3.14841 27.8513C3.81401 27.6381 4.49911 27.6062 4.98141 28.032C5.54886 28.5325 5.7029 29.2553 5.3961 29.9716C5.36057 30.0796 5.31509 30.184 5.26026 30.2836C5.27976 30.2979 5.29861 30.3128 5.31746 30.3284C5.44892 30.4348 5.55319 30.5709 5.62165 30.7256C5.87645 31.2826 5.79845 31.8098 5.38375 32.3337L5.38896 32.3389C5.81666 32.7334 5.91221 33.4666 5.62686 34.1686C5.47198 34.5473 5.22645 34.8821 4.91186 35.1436C4.89951 35.154 4.88651 35.1638 4.87351 35.1729C4.73447 35.2852 4.58442 35.3832 4.42566 35.4654C3.92891 35.7242 3.37704 35.8593 2.81691 35.8593C2.11751 35.8593 1.49156 35.6467 1.10221 35.3302C0.671255 34.9792 0.494456 34.4852 0.629656 34.0087C0.660856 33.8982 0.661505 33.8963 0.523055 33.7045C0.171405 33.2222 -0.119793 32.6554 0.461306 31.4854Z" fill="#532F09"/>
<path d="M1.19844 34.1569C0.964438 34.983 2.67849 35.6571 4.12344 34.905C4.2568 34.8361 4.38195 34.7524 4.49654 34.6554H4.49979C4.73809 34.4592 4.92411 34.2071 5.04124 33.9216C5.34869 33.1663 5.03799 32.4168 4.36849 32.7288C4.16113 32.8234 3.94278 32.8918 3.71849 32.9323C4.25864 32.5559 4.62264 32.2537 4.84559 31.9891C5.17579 31.5991 5.20179 31.293 5.05034 30.9615C4.76889 30.3407 3.74449 30.9426 3.65934 30.9966C5.12379 29.9748 4.98144 29.3436 4.58104 28.6325C4.22614 27.9981 2.12664 28.9107 1.55659 29.458C1.4387 29.5688 1.33122 29.6903 1.23549 29.8207C0.655688 30.6144 1.06844 31.1708 1.07039 31.5107C1.07032 31.5365 1.06727 31.5623 1.06129 31.5874C1.05761 31.6066 1.0508 31.625 1.04114 31.642C0.148037 33.3392 1.47664 33.1754 1.19844 34.1569Z" fill="#B8835A"/>
<path d="M0.949421 29.1084C0.949421 29.1084 0.949423 29.1038 0.955273 29.1025C1.02742 29.0317 1.62347 28.4603 2.35277 28.1925C2.62382 28.0944 2.53932 27.4567 2.27022 26.9705C2.02127 26.5155 1.61307 26.1905 1.18017 26.5591C0.487272 27.1493 1.48892 27.7349 0.949421 29.1084Z" fill="#B8835A"/>
<path d="M0.949421 29.1083C0.949421 29.1083 0.949423 29.1037 0.955273 29.1024C1.31017 28.7046 1.37582 28.1554 1.35892 27.4495C1.34397 26.8405 2.02322 26.7254 2.26892 26.9737C2.01997 26.5187 1.61177 26.1937 1.17887 26.5623C0.487273 27.1492 1.48892 27.7348 0.949421 29.1083Z" fill="#D9A56B"/>
<path d="M3.71395 32.9342C3.71395 32.9342 3.71395 32.9342 3.7107 32.9342C3.70745 32.9342 5.23235 33.0454 5.04125 33.9235C5.3487 33.1682 5.038 32.4188 4.3685 32.7308C4.16102 32.825 3.94271 32.8934 3.7185 32.9342H3.71395Z" fill="#D9A56B"/>
<path d="M3.64953 31.0012C3.64953 31.0012 5.43573 30.6762 4.84228 31.9905C5.17248 31.6005 5.19848 31.295 5.04703 30.9635C4.76558 30.3421 3.74118 30.9446 3.65603 30.9986C5.12048 29.9768 5.18808 29.0317 4.57643 28.4922C3.91083 27.9072 2.12333 28.9127 1.55328 29.46C1.43539 29.5709 1.3279 29.6923 1.23218 29.8227C1.42328 29.566 3.43828 28.576 3.91278 28.9218C4.46138 29.3209 4.56083 30.1893 3.64953 31.0012Z" fill="#D9A56B"/>
<path d="M1.20226 34.1569C0.968263 34.9831 2.68231 35.6571 4.12726 34.9051C4.26062 34.8362 4.38577 34.7525 4.50036 34.6555C3.21921 35.3887 1.99786 34.4468 2.03491 33.9216C2.12396 32.6567 0.509363 32.9986 1.05991 31.5901C1.05624 31.6093 1.04943 31.6277 1.03976 31.6447C0.152514 33.3392 1.48111 33.1754 1.20226 34.1569Z" fill="#9C6541"/>
<path d="M29.0178 33.8624C29.0178 34.075 28.7942 34.307 28.6603 34.452C28.5494 34.5719 28.405 34.6557 28.2458 34.6923C28.0866 34.729 27.9201 34.7168 27.7679 34.6573C27.6158 34.5979 27.4851 34.494 27.3929 34.3591C27.3007 34.2243 27.2513 34.0648 27.2511 33.9014C27.2511 33.6453 27.3583 33.2748 27.5436 33.126C27.6827 33.0142 27.8686 33.0889 28.0636 33.0889C28.2781 33.0889 28.505 33.0584 28.6486 33.1936C28.8085 33.3418 29.0178 33.6304 29.0178 33.8624Z" fill="#D9A56B"/>
<path d="M28.4601 33.6045C28.4601 33.6903 28.3366 33.7845 28.2651 33.843C28.17 33.9143 28.0537 33.9516 27.9349 33.949C27.8184 33.9512 27.7044 33.9156 27.6099 33.8476C27.5729 33.822 27.5424 33.788 27.5208 33.7485C27.4993 33.709 27.4872 33.665 27.4857 33.6201C27.4864 33.5587 27.5015 33.4983 27.5295 33.4437C27.5576 33.3891 27.598 33.3418 27.6476 33.3055C27.7243 33.2606 27.8283 33.2912 27.9349 33.2912C28.0532 33.2912 28.1786 33.2782 28.2599 33.3334C28.3411 33.3887 28.4601 33.5096 28.4601 33.6045Z" fill="#D9A56B"/>
<path d="M29.0177 33.7754C29.0177 33.9645 28.8182 34.1712 28.6993 34.2999C28.6006 34.4069 28.4719 34.4816 28.3301 34.5143C28.1883 34.547 28.04 34.5362 27.9044 34.4832C27.7689 34.4303 27.6524 34.3377 27.5703 34.2176C27.4882 34.0975 27.4442 33.9553 27.4441 33.8098C27.4441 33.5817 27.5403 33.2515 27.7041 33.1189C27.8282 33.0194 27.9959 33.0864 28.1669 33.0864C28.3573 33.0864 28.5569 33.0591 28.6869 33.1793C28.8312 33.3113 29.0177 33.5654 29.0177 33.7754Z" fill="#532F09"/>
<path d="M28.5211 33.5452C28.5211 33.6219 28.4113 33.7057 28.345 33.7577C28.2602 33.821 28.1568 33.8541 28.0512 33.852C27.9472 33.8536 27.8454 33.8214 27.7613 33.7603C27.7285 33.7373 27.7014 33.7071 27.6823 33.6719C27.6631 33.6367 27.6523 33.5976 27.6508 33.5575C27.6514 33.5029 27.6647 33.4492 27.6898 33.4007C27.7148 33.3521 27.7509 33.3101 27.7951 33.278C27.8601 33.2377 27.9563 33.2644 28.0512 33.2644C28.1565 33.2644 28.2683 33.2533 28.3398 33.3021C28.4113 33.3508 28.5211 33.4607 28.5211 33.5452Z" fill="#8A5D3B"/>
<path d="M2.53348 33.7604C2.38099 33.7154 2.25117 33.6144 2.17013 33.4776C2.08238 33.3314 1.99918 33.1338 2.05183 32.9576C2.10448 32.7815 2.27608 32.6671 2.42493 32.5904C2.5697 32.5161 2.73758 32.5005 2.89358 32.5468C3.08858 32.604 3.27448 32.7418 3.34468 32.9147C3.39733 33.0447 3.36353 33.1903 3.32128 33.334C3.27383 33.4945 3.18478 33.7168 3.05088 33.7955C2.90528 33.8826 2.70898 33.8143 2.53348 33.7604Z" fill="#D9A56B"/>
<path d="M2.6771 33.3171C2.56459 33.2859 2.46133 33.2279 2.37615 33.1481C2.29685 33.0695 2.2156 32.9661 2.23965 32.8881C2.2637 32.8101 2.38395 32.7678 2.4899 32.7438C2.60707 32.7215 2.72795 32.7289 2.84155 32.7653C2.9917 32.8095 3.1477 32.8952 3.21595 32.983C3.23643 33.0119 3.24906 33.0455 3.25259 33.0808C3.25612 33.116 3.25044 33.1515 3.2361 33.1838C3.214 33.2566 3.16655 33.3567 3.0723 33.3827C2.97805 33.4087 2.8149 33.358 2.6771 33.3171Z" fill="#D9A56B"/>
<path d="M2.68566 33.5998C2.5573 33.5619 2.44798 33.4769 2.37951 33.3619C2.30541 33.2384 2.23586 33.0714 2.28006 32.9232C2.32426 32.775 2.46921 32.6775 2.59401 32.6131C2.71607 32.5503 2.85773 32.5372 2.98921 32.5767C3.07085 32.5985 3.14695 32.6373 3.21249 32.6907C3.27804 32.744 3.33153 32.8106 3.36946 32.8861C3.41366 32.9947 3.38506 33.1188 3.34931 33.2397C3.30966 33.3749 3.23426 33.5647 3.12181 33.6297C2.99896 33.7012 2.83386 33.644 2.68566 33.5998Z" fill="#532F09"/>
<path d="M2.80651 33.2247C2.71168 33.1983 2.62468 33.1492 2.55301 33.0817C2.48801 33.0167 2.41781 32.929 2.43796 32.8607C2.45811 32.7925 2.55951 32.7593 2.64921 32.7392C2.74796 32.7206 2.84976 32.7266 2.94561 32.7567C3.06573 32.7876 3.17489 32.8513 3.26086 32.9407C3.27798 32.965 3.28854 32.9934 3.2915 33.023C3.29446 33.0526 3.28973 33.0825 3.27776 33.1097C3.27036 33.1468 3.25392 33.1816 3.22988 33.2108C3.20584 33.2401 3.17496 33.2629 3.13996 33.2774C3.05286 33.3014 2.92286 33.2592 2.80651 33.2247Z" fill="#8A5D3B"/>
<path d="M3.54758 29.8774C3.54758 30.0893 3.53588 30.3584 3.40263 30.5027C3.25443 30.6632 2.97363 30.6866 2.73833 30.6866C2.50303 30.6866 2.23068 30.6821 2.08313 30.528C1.93558 30.374 1.92908 30.0938 1.92908 29.878C1.92895 29.7568 1.95612 29.6371 2.00855 29.5279C2.06099 29.4186 2.13735 29.3226 2.23198 29.2469C2.37043 29.1351 2.56608 28.9602 2.75783 28.9602C2.97103 28.9602 3.14783 29.1513 3.29018 29.2852C3.37158 29.3608 3.43647 29.4525 3.48076 29.5544C3.52506 29.6563 3.54781 29.7662 3.54758 29.8774V29.8774Z" fill="#D9A56B"/>
<path d="M2.98329 29.7616C2.96964 29.8734 2.94624 30.0151 2.87149 30.0834C2.79674 30.1516 2.64594 30.1549 2.52894 30.1412C2.41194 30.1276 2.27609 30.1081 2.21304 30.0177C2.14999 29.9274 2.16364 29.7792 2.17729 29.6648C2.18453 29.6016 2.20536 29.5407 2.23835 29.4862C2.27133 29.4318 2.31569 29.3852 2.36839 29.3495C2.44444 29.2988 2.55234 29.2195 2.64789 29.2299C2.75384 29.2423 2.82924 29.3534 2.89229 29.4334C2.92829 29.4794 2.95486 29.5321 2.97047 29.5884C2.98609 29.6448 2.99044 29.7036 2.98329 29.7616Z" fill="#D9A56B"/>
<path d="M3.54752 29.7811C3.54752 29.9709 3.53647 30.2121 3.41752 30.3408C3.28752 30.4844 3.03403 30.5059 2.82278 30.5059C2.61153 30.5059 2.36778 30.502 2.23778 30.3635C2.10778 30.2251 2.09998 29.9735 2.09998 29.7785C2.09993 29.67 2.12426 29.5628 2.17117 29.4649C2.21808 29.367 2.28638 29.281 2.37103 29.213C2.49518 29.1136 2.67003 28.9569 2.84163 28.9569C3.03273 28.9569 3.18873 29.1279 3.31808 29.2488C3.39115 29.3167 3.44928 29.3992 3.48878 29.4908C3.52828 29.5825 3.54829 29.6813 3.54752 29.7811Z" fill="#532F09"/>
<path d="M3.16335 29.6778C3.151 29.7779 3.1302 29.9046 3.06325 29.9657C2.9963 30.0268 2.8611 30.0307 2.75645 30.0171C2.6518 30.0034 2.53025 29.9878 2.4737 29.9072C2.41715 29.8266 2.4295 29.6934 2.44185 29.5913C2.44813 29.5346 2.46667 29.48 2.49619 29.4311C2.52571 29.3823 2.5655 29.3405 2.6128 29.3086C2.6778 29.2637 2.7779 29.1909 2.86305 29.2013C2.9482 29.2117 3.0249 29.3125 3.0821 29.384C3.11439 29.4251 3.1382 29.4723 3.15214 29.5227C3.16609 29.5732 3.1699 29.6259 3.16335 29.6778V29.6778Z" fill="#8A5D3B"/>
<path d="M29.3765 29.6465C29.346 29.8064 29.1445 29.9494 29.0236 30.0365C28.923 30.111 28.8024 30.1535 28.6773 30.1584C28.5523 30.1633 28.4287 30.1305 28.3226 30.0641C28.2165 29.9977 28.1329 29.9009 28.0826 29.7863C28.0323 29.6717 28.0178 29.5446 28.0408 29.4216C28.0772 29.2266 28.2111 28.9666 28.3716 28.8795C28.4919 28.8145 28.6232 28.8983 28.7681 28.9256C28.9287 28.9562 29.1042 28.9653 29.1939 29.0875C29.2927 29.2246 29.4123 29.4703 29.3765 29.6465Z" fill="#D9A56B"/>
<path d="M28.9938 29.3728C28.9814 29.4378 28.8748 29.4905 28.8111 29.5243C28.7296 29.5623 28.6383 29.574 28.5499 29.5579C28.4614 29.5419 28.3801 29.4988 28.3171 29.4346C28.2928 29.41 28.2746 29.3802 28.2639 29.3473C28.2532 29.3145 28.2503 29.2796 28.2554 29.2454C28.2648 29.1994 28.2848 29.1562 28.3138 29.1192C28.3428 29.0822 28.38 29.0524 28.4224 29.0323C28.4874 29.0089 28.5602 29.0466 28.6408 29.0615C28.7214 29.0765 28.8261 29.0868 28.8787 29.1395C28.9314 29.1921 29.0068 29.3013 28.9938 29.3728Z" fill="#D9A56B"/>
<path d="M29.3889 29.5789C29.3622 29.7213 29.1835 29.848 29.0762 29.928C28.987 29.9945 28.8798 30.0325 28.7686 30.037C28.6574 30.0415 28.5475 30.0124 28.4531 29.9534C28.3588 29.8944 28.2845 29.8083 28.2399 29.7063C28.1953 29.6044 28.1825 29.4913 28.2033 29.382C28.2358 29.2104 28.3541 28.9764 28.4971 28.9003C28.6037 28.8431 28.72 28.9172 28.8487 28.9413C28.9917 28.9686 29.1471 28.9764 29.227 29.0856C29.307 29.1948 29.4188 29.4223 29.3889 29.5789Z" fill="#532F09"/>
<path d="M29.049 29.3358C29.0386 29.3937 28.9437 29.4411 28.8871 29.471C28.8147 29.5047 28.7336 29.5151 28.6551 29.5008C28.5765 29.4865 28.5043 29.4482 28.4484 29.3911C28.4268 29.3694 28.4105 29.3429 28.4011 29.3138C28.3916 29.2846 28.3891 29.2537 28.3938 29.2234C28.402 29.1824 28.4196 29.1438 28.4454 29.1109C28.4711 29.0779 28.5042 29.0515 28.542 29.0336C28.5992 29.0128 28.6648 29.0466 28.737 29.0596C28.8091 29.0726 28.9014 29.0823 28.9482 29.1291C28.995 29.1759 29.0613 29.2754 29.049 29.3358Z" fill="#8A5D3B"/>
<path d="M30.7526 31.4854C30.7526 31.6538 30.5576 31.8072 30.451 31.9216C30.3632 32.0171 30.2487 32.0838 30.1224 32.1131C29.9961 32.1424 29.8639 32.1328 29.7431 32.0856C29.6223 32.0385 29.5186 31.956 29.4456 31.8489C29.3725 31.7418 29.3335 31.6151 29.3336 31.4854C29.3336 31.2826 29.3739 30.9999 29.5208 30.8822C29.6313 30.7938 29.825 30.8419 29.9758 30.8419C30.1387 30.8417 30.2956 30.9035 30.4146 31.0148C30.5426 31.1299 30.7526 31.2976 30.7526 31.4854Z" fill="#D9A56B"/>
<path d="M30.49 31.3203C30.49 31.3853 30.3665 31.4438 30.2996 31.488C30.2102 31.5428 30.1068 31.5706 30.0019 31.5679C29.8989 31.5702 29.7974 31.5437 29.7087 31.4912C29.6772 31.4745 29.6504 31.45 29.6309 31.4201C29.6113 31.3902 29.5997 31.3559 29.5969 31.3203C29.5934 31.2745 29.6025 31.2287 29.6232 31.1878C29.644 31.1469 29.6756 31.1124 29.7146 31.0882C29.7841 31.0544 29.9096 31.0726 30.0019 31.0726C30.098 31.0706 30.193 31.093 30.2781 31.1376C30.3574 31.1844 30.49 31.2488 30.49 31.3203Z" fill="#D9A56B"/>
<path d="M30.7526 31.4015C30.7526 31.5484 30.581 31.6823 30.4887 31.7831C30.4118 31.8657 30.3118 31.9233 30.2017 31.9484C30.0916 31.9735 29.9766 31.965 29.8714 31.9238C29.7663 31.8827 29.676 31.8109 29.6122 31.7177C29.5484 31.6246 29.5141 31.5144 29.5137 31.4015C29.5137 31.2234 29.5481 30.9764 29.6768 30.8737C29.7737 30.7957 29.9433 30.838 30.0766 30.838C30.2192 30.838 30.3565 30.8921 30.4607 30.9894C30.5686 31.0954 30.7526 31.2384 30.7526 31.4015Z" fill="#532F09"/>
<path d="M30.5225 31.2585C30.5225 31.315 30.4146 31.3664 30.3567 31.4054C30.2775 31.4506 30.1879 31.4744 30.0967 31.4744C30.0056 31.4744 29.9159 31.4506 29.8367 31.4054C29.8091 31.3907 29.7857 31.3694 29.7685 31.3432C29.7513 31.3171 29.7411 31.2871 29.7386 31.2559C29.7354 31.2158 29.7434 31.1757 29.7617 31.1399C29.7799 31.1041 29.8077 31.0741 29.8419 31.0531C29.9024 31.0232 30.0096 31.0394 30.0935 31.0394C30.1775 31.0381 30.2604 31.058 30.3346 31.0973C30.4068 31.1395 30.5225 31.1961 30.5225 31.2585Z" fill="#8A5D3B"/>
<path d="M48.8203 11.1445C48.8203 9.85547 49.1198 8.67057 49.7188 7.58984C50.3242 6.5026 51.1576 5.64323 52.2188 5.01172C53.2799 4.38021 54.4551 4.06445 55.7441 4.06445C56.9486 4.06445 58.0521 4.32812 59.0547 4.85547C60.0573 5.3763 60.8646 6.08594 61.4766 6.98438L59.1035 8.61523C58.7259 8.06185 58.2441 7.62565 57.6582 7.30664C57.0723 6.98112 56.4342 6.81836 55.7441 6.81836C54.6048 6.81836 53.6543 7.23828 52.8926 8.07812C52.1374 8.91146 51.7598 9.93359 51.7598 11.1445C51.7598 12.349 52.1374 13.3678 52.8926 14.2012C53.6543 15.028 54.6048 15.4414 55.7441 15.4414C56.4473 15.4414 57.0983 15.2689 57.6973 14.9238C58.3027 14.5788 58.7975 14.1165 59.1816 13.5371L61.5352 15.1777C60.9232 16.1087 60.1094 16.8444 59.0938 17.3848C58.0846 17.9251 56.9681 18.1953 55.7441 18.1953C54.7806 18.1953 53.8691 18.0098 53.0098 17.6387C52.1504 17.2611 51.4147 16.7565 50.8027 16.125C50.1908 15.4935 49.7057 14.7448 49.3477 13.8789C48.9961 13.013 48.8203 12.1016 48.8203 11.1445ZM63.8637 18V3.57617H66.6469V10.1191C66.7641 9.75456 66.9789 9.44206 67.2914 9.18164C67.6104 8.92122 67.9392 8.73568 68.2777 8.625C68.6163 8.51432 68.9451 8.45898 69.2641 8.45898C70.4815 8.45898 71.4092 8.84635 72.0473 9.62109C72.6853 10.3958 73.0043 11.4961 73.0043 12.9219V18H70.2211V13.0195C70.2211 12.4466 70.0486 11.9941 69.7035 11.6621C69.3585 11.3301 68.9581 11.1641 68.5023 11.1641C67.9945 11.1641 67.5583 11.3171 67.1938 11.623C66.8292 11.929 66.6469 12.4076 66.6469 13.0586V18H63.8637ZM75.4891 13.3027C75.4891 12.3522 75.7072 11.5059 76.1434 10.7637C76.5861 10.015 77.172 9.44531 77.9012 9.05469C78.6368 8.65755 79.4441 8.45898 80.323 8.45898C81.202 8.45898 82.0092 8.65755 82.7449 9.05469C83.4806 9.44531 84.0698 10.015 84.5125 10.7637C84.9617 11.5059 85.1863 12.3522 85.1863 13.3027C85.1863 14.2533 84.9617 15.1029 84.5125 15.8516C84.0698 16.6003 83.4806 17.1732 82.7449 17.5703C82.0092 17.9609 81.202 18.1562 80.323 18.1562C79.4441 18.1562 78.6368 17.9609 77.9012 17.5703C77.172 17.1732 76.5861 16.6035 76.1434 15.8613C75.7072 15.1126 75.4891 14.2598 75.4891 13.3027ZM78.2234 13.3027C78.2234 13.9342 78.4253 14.4486 78.8289 14.8457C79.2391 15.2428 79.7371 15.4414 80.323 15.4414C80.922 15.4414 81.4233 15.2461 81.827 14.8555C82.2371 14.4583 82.4422 13.9408 82.4422 13.3027C82.4422 12.6842 82.2371 12.1764 81.827 11.7793C81.4168 11.3822 80.9155 11.1836 80.323 11.1836C79.7371 11.1836 79.2391 11.3822 78.8289 11.7793C78.4253 12.1764 78.2234 12.6842 78.2234 13.3027ZM87.2219 13.3027C87.2219 12.5866 87.3586 11.9225 87.632 11.3105C87.912 10.6986 88.2863 10.1875 88.7551 9.77734C89.2238 9.36068 89.7642 9.03841 90.3762 8.81055C90.9882 8.57617 91.6294 8.45898 92.3 8.45898C93.1333 8.45898 93.9048 8.63477 94.6145 8.98633C95.3306 9.33138 95.9133 9.81641 96.3625 10.4414L94.0969 12.0625C93.9081 11.7695 93.6509 11.5384 93.3254 11.3691C93.0064 11.1999 92.6646 11.1152 92.3 11.1152C91.6815 11.1152 91.1379 11.3203 90.6691 11.7305C90.2069 12.1341 89.9758 12.6582 89.9758 13.3027C89.9758 13.9473 90.2069 14.4811 90.6691 14.9043C91.1379 15.3275 91.6815 15.5391 92.3 15.5391C92.6646 15.5391 93.0064 15.4577 93.3254 15.2949C93.6509 15.1257 93.9081 14.8945 94.0969 14.6016L96.3625 16.2031C95.9263 16.8346 95.3501 17.3262 94.634 17.6777C93.9178 18.0228 93.1398 18.1953 92.3 18.1953C91.4016 18.1953 90.5682 17.9967 89.8 17.5996C89.0318 17.196 88.41 16.6165 87.9348 15.8613C87.4595 15.1061 87.2219 14.2533 87.2219 13.3027ZM98.2125 13.3027C98.2125 12.3522 98.4306 11.5059 98.8668 10.7637C99.3095 10.015 99.8954 9.44531 100.625 9.05469C101.36 8.65755 102.168 8.45898 103.046 8.45898C103.925 8.45898 104.733 8.65755 105.468 9.05469C106.204 9.44531 106.793 10.015 107.236 10.7637C107.685 11.5059 107.91 12.3522 107.91 13.3027C107.91 14.2533 107.685 15.1029 107.236 15.8516C106.793 16.6003 106.204 17.1732 105.468 17.5703C104.733 17.9609 103.925 18.1562 103.046 18.1562C102.168 18.1562 101.36 17.9609 100.625 17.5703C99.8954 17.1732 99.3095 16.6035 98.8668 15.8613C98.4306 15.1126 98.2125 14.2598 98.2125 13.3027ZM100.947 13.3027C100.947 13.9342 101.149 14.4486 101.552 14.8457C101.963 15.2428 102.461 15.4414 103.046 15.4414C103.645 15.4414 104.147 15.2461 104.55 14.8555C104.961 14.4583 105.166 13.9408 105.166 13.3027C105.166 12.6842 104.961 12.1764 104.55 11.7793C104.14 11.3822 103.639 11.1836 103.046 11.1836C102.461 11.1836 101.963 11.3822 101.552 11.7793C101.149 12.1764 100.947 12.6842 100.947 13.3027ZM49.6211 38V24.2207H55.2754C56.0306 24.2207 56.7044 24.3509 57.2969 24.6113C57.8958 24.8652 58.3743 25.2103 58.7324 25.6465C59.0905 26.0762 59.3607 26.5547 59.543 27.082C59.7253 27.6094 59.8164 28.1628 59.8164 28.7422C59.8164 29.3281 59.7253 29.8848 59.543 30.4121C59.3607 30.9395 59.0905 31.418 58.7324 31.8477C58.3743 32.2708 57.8958 32.6094 57.2969 32.8633C56.7044 33.1172 56.0306 33.2441 55.2754 33.2441H52.5605V38H49.6211ZM52.5605 30.6758H55.1387C55.6725 30.6758 56.0957 30.4772 56.4082 30.0801C56.7207 29.6829 56.877 29.237 56.877 28.7422C56.877 28.2604 56.7272 27.8177 56.4277 27.4141C56.1348 27.0039 55.7311 26.7988 55.2168 26.7988H52.5605V30.6758ZM62.0473 38V28.6641H64.8305V30.9199C65.0518 30.1126 65.4132 29.5007 65.9145 29.084C66.4158 28.6673 66.9333 28.459 67.4672 28.459C68.0922 28.459 68.626 28.5729 69.0688 28.8008L68.5707 31.3008C68.1866 31.112 67.7113 31.0176 67.1449 31.0176C66.3507 31.0176 65.7647 31.3268 65.3871 31.9453C65.016 32.5638 64.8305 33.4948 64.8305 34.7383V38H62.0473ZM70.3914 33.3027C70.3914 32.3522 70.6095 31.5059 71.0457 30.7637C71.4884 30.015 72.0743 29.4453 72.8035 29.0547C73.5392 28.6576 74.3465 28.459 75.2254 28.459C76.1043 28.459 76.9116 28.6576 77.6473 29.0547C78.3829 29.4453 78.9721 30.015 79.4148 30.7637C79.8641 31.5059 80.0887 32.3522 80.0887 33.3027C80.0887 34.2533 79.8641 35.1029 79.4148 35.8516C78.9721 36.6003 78.3829 37.1732 77.6473 37.5703C76.9116 37.9609 76.1043 38.1562 75.2254 38.1562C74.3465 38.1562 73.5392 37.9609 72.8035 37.5703C72.0743 37.1732 71.4884 36.6035 71.0457 35.8613C70.6095 35.1126 70.3914 34.2598 70.3914 33.3027ZM73.1258 33.3027C73.1258 33.9342 73.3276 34.4486 73.7313 34.8457C74.1414 35.2428 74.6395 35.4414 75.2254 35.4414C75.8243 35.4414 76.3257 35.2461 76.7293 34.8555C77.1395 34.4583 77.3445 33.9408 77.3445 33.3027C77.3445 32.6842 77.1395 32.1764 76.7293 31.7793C76.3191 31.3822 75.8178 31.1836 75.2254 31.1836C74.6395 31.1836 74.1414 31.3822 73.7313 31.7793C73.3276 32.1764 73.1258 32.6842 73.1258 33.3027ZM81.1281 38L84.8098 32.9414L81.7336 28.6641H84.966L86.3723 30.7246L87.7492 28.6641H90.9719L87.8859 32.9414L91.548 38H88.3254L86.3527 35.1387L84.3508 38H81.1281ZM93.6813 26.3594C93.3427 26.0404 93.1734 25.653 93.1734 25.1973C93.1734 24.7415 93.3427 24.3574 93.6813 24.0449C94.0263 23.7324 94.4365 23.5762 94.9117 23.5762C95.3805 23.5762 95.7809 23.7324 96.1129 24.0449C96.4449 24.3574 96.6109 24.7415 96.6109 25.1973C96.6109 25.653 96.4449 26.0404 96.1129 26.3594C95.7809 26.6784 95.3805 26.8379 94.9117 26.8379C94.4365 26.8379 94.0263 26.6784 93.6813 26.3594ZM93.5348 38V28.6641H96.2984V38H93.5348ZM99.5449 35.8711C99.1087 35.1159 98.8906 34.2598 98.8906 33.3027C98.8906 32.3457 99.1087 31.4961 99.5449 30.7539C99.9876 30.0117 100.577 29.4453 101.312 29.0547C102.055 28.6576 102.872 28.459 103.764 28.459C104.421 28.459 105.043 28.5794 105.629 28.8203C106.215 29.0612 106.723 29.3932 107.152 29.8164C107.582 30.2396 107.921 30.7604 108.168 31.3789C108.422 31.9909 108.549 32.6582 108.549 33.3809C108.549 33.6283 108.536 33.9147 108.51 34.2402H101.664C101.729 34.7415 101.99 35.1289 102.445 35.4023C102.908 35.6693 103.415 35.8027 103.969 35.8027C104.372 35.8027 104.757 35.7279 105.121 35.5781C105.492 35.4284 105.788 35.2103 106.01 34.9238L108.031 36.3008C107.595 36.9518 106.993 37.4303 106.225 37.7363C105.456 38.0423 104.636 38.1953 103.764 38.1953C102.872 38.1953 102.055 37.9967 101.312 37.5996C100.577 37.196 99.9876 36.6198 99.5449 35.8711ZM101.703 32.502H105.746C105.681 31.9746 105.45 31.5775 105.053 31.3105C104.662 31.0371 104.239 30.9004 103.783 30.9004C103.327 30.9004 102.895 31.0339 102.484 31.3008C102.074 31.5612 101.814 31.9616 101.703 32.502ZM110.487 34.9824H113.084C113.097 35.2624 113.237 35.513 113.504 35.7344C113.771 35.9492 114.09 36.0566 114.461 36.0566C114.78 36.0436 115.051 35.9688 115.272 35.832C115.493 35.6888 115.604 35.5033 115.604 35.2754C115.604 35.0736 115.536 34.9141 115.399 34.7969C115.262 34.6732 115.024 34.569 114.686 34.4844L113.465 34.1621C112.931 34.0189 112.476 33.8398 112.098 33.625C111.72 33.4102 111.44 33.2083 111.258 33.0195C111.076 32.8242 110.936 32.5964 110.838 32.3359C110.741 32.069 110.685 31.8574 110.672 31.7012C110.659 31.5449 110.656 31.3496 110.662 31.1152C110.676 30.4186 111.043 29.8034 111.766 29.2695C112.489 28.7292 113.335 28.459 114.305 28.459C114.689 28.459 115.057 28.4948 115.409 28.5664C115.767 28.6315 116.112 28.7422 116.444 28.8984C116.782 29.0547 117.072 29.25 117.313 29.4844C117.56 29.7188 117.759 30.015 117.909 30.373C118.058 30.7246 118.136 31.1217 118.143 31.5645H115.526C115.513 31.0176 115.158 30.7441 114.461 30.7441C114.162 30.7441 113.921 30.8092 113.739 30.9395C113.563 31.0632 113.478 31.2292 113.485 31.4375C113.511 31.776 113.784 32.0104 114.305 32.1406L115.887 32.5605C116.317 32.6777 116.691 32.834 117.01 33.0293C117.336 33.2181 117.583 33.4102 117.752 33.6055C117.928 33.8008 118.068 34.0124 118.172 34.2402C118.283 34.4681 118.351 34.6634 118.377 34.8262C118.41 34.9824 118.426 35.1322 118.426 35.2754C118.426 35.7507 118.309 36.1803 118.075 36.5645C117.84 36.9486 117.528 37.2578 117.137 37.4922C116.746 37.7201 116.314 37.8926 115.838 38.0098C115.37 38.1335 114.885 38.1953 114.383 38.1953C113.999 38.1953 113.621 38.1497 113.25 38.0586C112.879 37.974 112.528 37.8438 112.196 37.668C111.864 37.4857 111.571 37.2708 111.317 37.0234C111.063 36.7695 110.861 36.4668 110.711 36.1152C110.568 35.7637 110.493 35.3861 110.487 34.9824Z" fill="#582F1B"/>
</svg>
